<svg 
 xmlns="http://www.w3.org/2000/svg"
 xmlns:xlink="http://www.w3.org/1999/xlink"
 width="11px" height="11px">
<path fill-rule="evenodd"  fill="rgb(52, 52, 52)"
 d="M7.541,6.596 C8.806,4.846 8.383,2.422 6.597,1.182 C4.811,-0.057 2.339,0.358 1.074,2.108 C-0.190,3.859 0.233,6.282 2.019,7.522 C3.293,8.407 4.978,8.474 6.323,7.696 L9.244,10.543 C9.559,10.868 10.084,10.881 10.416,10.572 C10.748,10.263 10.761,9.749 10.446,9.423 C10.436,9.413 10.426,9.403 10.416,9.393 L7.541,6.596 ZM4.305,6.861 C2.894,6.862 1.750,5.741 1.749,4.357 C1.749,2.975 2.892,1.853 4.303,1.852 C5.713,1.852 6.856,2.970 6.859,4.352 C6.861,5.737 5.719,6.859 4.307,6.861 C4.306,6.861 4.306,6.861 4.305,6.861 Z"/>
</svg>